<svg xmlns="http://www.w3.org/2000/svg" viewBox="0 0 1024 1024" role="img" aria-labelledby="title desc">
  <title id="title">SV Circle Logo</title>
  <desc id="desc">Gold SV monogram inside a circular gold ring on transparent background.</desc>
  <defs>
    <linearGradient id="gold" x1="0" y1="0" x2="1" y2="1">
      <stop offset="0" stop-color="#fff3b0"/>
      <stop offset="0.18" stop-color="#f7d36a"/>
      <stop offset="0.48" stop-color="#d99a24"/>
      <stop offset="0.72" stop-color="#f2c052"/>
      <stop offset="1" stop-color="#9d5d0b"/>
    </linearGradient>
    <linearGradient id="gold2" x1="0" y1="1" x2="1" y2="0">
      <stop offset="0" stop-color="#a56512"/>
      <stop offset="0.38" stop-color="#f3c85e"/>
      <stop offset="0.7" stop-color="#fff0a0"/>
      <stop offset="1" stop-color="#c47b12"/>
    </linearGradient>
    <filter id="shadow" x="-20%" y="-20%" width="140%" height="140%">
      <feDropShadow dx="0" dy="18" stdDeviation="18" flood-color="#000" flood-opacity="0.32"/>
    </filter>
  </defs>
  <circle cx="512" cy="512" r="438" fill="none" stroke="url(#gold)" stroke-width="34" filter="url(#shadow)"/>
  <circle cx="512" cy="512" r="405" fill="none" stroke="#ffd979" stroke-opacity="0.34" stroke-width="4"/>
  <path fill="url(#gold)" d="M573 245c-38-37-92-58-151-58-117 0-205 73-205 172 0 99 69 144 171 176 85 27 119 49 119 100 0 57-48 95-119 95-73 0-132-31-178-85l-33 43c49 68 126 111 216 111 126 0 215-70 215-181 0-97-63-143-171-178-84-27-123-48-123-96 0-52 44-87 109-87 61 0 111 24 151 66l-1-78z"/>
  <path fill="url(#gold2)" d="M514 367h86l121 315 122-315h78L744 804h-49z"/>
  <path d="M458 505c44 13 78 29 102 48" fill="none" stroke="#8d540a" stroke-width="11" stroke-linecap="round" opacity="0.75"/>
</svg>